<?xml version="1.0" standalone="no"?>
<!DOCTYPE svg PUBLIC "-//W3C//DTD SVG 20010904//EN"
 "http://www.w3.org/TR/2001/REC-SVG-20010904/DTD/svg10.dtd">
<svg version="1.0" xmlns="http://www.w3.org/2000/svg"
 width="128.000000pt" height="128.000000pt" viewBox="0 0 128.000000 128.000000"
 preserveAspectRatio="xMidYMid meet">
<metadata>
Created by potrace 1.14, written by Peter Selinger 2001-2017
</metadata>
<g transform="translate(0.000000,128.000000) scale(0.100000,-0.100000)"
fill="#000000" stroke="none">
<path d="M29 1251 l-29 -29 0 -582 0 -582 29 -29 29 -29 582 0 582 0 29 29 29
29 0 582 0 582 -29 29 -29 29 -582 0 -582 0 -29 -29z m1168 -133 l2 -78 -27 0
c-202 -4 -1073 0 -1080 4 -5 3 -10 39 -10 79 l0 74 556 -1 557 -1 2 -77z m-2
-598 l0 -435 -556 -1 -556 -2 0 439 0 438 556 -2 556 -2 0 -435z"/>
<path d="M136 1144 c-19 -18 -19 -20 -6 -45 6 -11 21 -19 35 -19 33 0 47 47
20 67 -24 17 -30 16 -49 -3z"/>
<path d="M248 1153 c-23 -6 -33 -40 -17 -59 27 -33 86 7 63 43 -12 19 -22 22
-46 16z"/>
<path d="M335 1144 c-19 -20 -16 -43 8 -58 37 -23 77 35 41 61 -23 17 -29 16
-49 -3z"/>
<path d="M680 753 c-86 -229 -170 -462 -170 -471 0 -8 50 -32 66 -32 3 0 31
75 119 315 36 99 70 188 75 197 8 14 4 21 -20 33 -16 8 -33 15 -39 15 -5 0
-19 -26 -31 -57z"/>
<path d="M305 620 l-100 -100 100 -100 c55 -55 103 -100 107 -100 4 0 18 11
32 25 l24 24 -76 76 -76 75 77 78 76 77 -25 23 c-14 12 -29 22 -33 22 -3 0
-51 -45 -106 -100z"/>
<path d="M833 696 l-21 -24 76 -75 76 -76 -76 -75 -76 -75 24 -26 c12 -14 27
-25 31 -25 5 0 53 45 108 100 l100 100 -100 100 c-55 55 -104 100 -110 99 -5
0 -20 -11 -32 -23z"/>
</g>
</svg>
