<?xml version="1.0" encoding="utf-8"?>
<!-- Generator: Adobe Illustrator 18.0.0, SVG Export Plug-In . SVG Version: 6.00 Build 0)  -->
<!DOCTYPE svg PUBLIC "-//W3C//DTD SVG 1.1//EN" "http://www.w3.org/Graphics/SVG/1.1/DTD/svg11.dtd">
<svg version="1.1" id="Layer_1" xmlns="http://www.w3.org/2000/svg" xmlns:xlink="http://www.w3.org/1999/xlink" x="0px" y="0px"
	 viewBox="0 0 64 64" enable-background="new 0 0 64 64" xml:space="preserve">
<g>
	<g>
		<g>
			<path fill="#BD6AE5" d="M32,0c17.7,0,32,14.3,32,32S49.7,64,32,64S0,49.7,0,32S14.3,0,32,0z"/>
		</g>
	</g>
	<g>
		<g>
			<path fill="#4D3E6D" d="M51,14.3V22H13v-7.7c0-0.7,0.6-1.3,1.3-1.3h35.5C50.4,13,51,13.6,51,14.3z"/>
		</g>
	</g>
	<g>
		<g>
			<path fill="#40D32A" d="M23.1,15.5c0.7,0,1.3,0.6,1.3,1.3c0,0.7-0.6,1.3-1.3,1.3c-0.7,0-1.3-0.6-1.3-1.3
				C21.9,16.1,22.4,15.5,23.1,15.5z"/>
		</g>
	</g>
	<g>
		<g>
			<path fill="#FCD638" d="M20,15.5c0.7,0,1.3,0.6,1.3,1.3c0,0.7-0.6,1.3-1.3,1.3c-0.7,0-1.3-0.6-1.3-1.3
				C18.7,16.1,19.3,15.5,20,15.5z"/>
		</g>
	</g>
	<g>
		<g>
			<circle fill="#F45151" cx="16.8" cy="16.8" r="1.3"/>
		</g>
	</g>
	<g>
		<g>
			<path fill="#FFFFFF" d="M51,20v29c0,1.1-0.9,2-2,2H15c-1.1,0-2-0.9-2-2V20H51z"/>
		</g>
	</g>
	<g>
		<g>
			<polygon points="45.5,35.8 39,42.2 37.6,40.8 42.6,35.8 37.6,30.8 39,29.4 			"/>
		</g>
	</g>
	<g>
		<g>
			<rect x="22.9" y="34.5" transform="matrix(0.3472 -0.9378 0.9378 0.3472 -12.387 53.1761)" width="18.2" height="2"/>
		</g>
	</g>
	<g>
		<g>
			<polygon points="25,29.4 26.4,30.8 21.4,35.8 26.4,40.8 25,42.2 18.5,35.8 			"/>
		</g>
	</g>
</g>
</svg>
